<?xml version="1.0" encoding="utf-8"?>
<!-- Generator: Adobe Illustrator 21.0.0, SVG Export Plug-In . SVG Version: 6.00 Build 0)  -->
<!DOCTYPE svg PUBLIC "-//W3C//DTD SVG 1.1//EN" "http://www.w3.org/Graphics/SVG/1.1/DTD/svg11.dtd">
<svg version="1.1" id="full" xmlns="http://www.w3.org/2000/svg" xmlns:xlink="http://www.w3.org/1999/xlink" x="0px" y="0px"
	 viewBox="0 0 214 408" style="enable-background:new 0 0 214 408;" xml:space="preserve">
<style type="text/css">
	.Arched_x0020_Green{fill:url(#SVGID_1_);stroke:#FFFFFF;stroke-width:0.25;stroke-miterlimit:1;}
	.st0{fill:#E31B23;}
	.st1{fill:#B5121B;}
	.st2{fill:#FBDDDE;}
	.st3{fill:#231F20;}
</style>
<linearGradient id="SVGID_1_" gradientUnits="userSpaceOnUse" x1="-199.0002" y1="599.9998" x2="-198.2931" y2="599.2927">
	<stop  offset="0" style="stop-color:#1EAB4B"/>
	<stop  offset="0.9831" style="stop-color:#19361A"/>
</linearGradient>
<path class="st0" d="M205.5,310c0,49.5-44.1,89.6-98.5,89.6c-54.4,0-98.5-40.1-98.5-89.6c0-49.5,44.1-89.6,98.5-89.6
	C161.4,220.4,205.5,260.5,205.5,310"/>
<path class="st1" d="M32.9,313.3c-6.9,26,19,52.3,35.9,59.6c14.8,6.4,44.1,10.7,64.7-1.8c-33.1-3.1-80.6-12.2-99.7-57.8"/>
<path class="st2" d="M164.9,303.4c-1.3,6.7-9.2,10.8-17.8,9.2c-8.6-1.6-14.5-8.3-13.3-15c1.2-6.7,9.2-10.8,17.8-9.2
	C160.2,289.9,166.1,296.7,164.9,303.4"/>
<path class="st3" d="M107,213.7c-1.7,0-3.3,0-4.9,0.1c-3.3-64.3,18-122.6,61.6-168.7l0.5-0.4c16.5-13.8,16.5-13.8,19.5-16
	c1.4-1,3.5-2.5,8.2-6.1l0.5-0.4l0.2-0.6c1-3.6-1.4-9.1-4.4-15.5c-0.5-1.1-1-2.1-1.3-2.9c-0.4-0.9-1.2-1.5-2.2-1.5
	c-1,0-1.8,0.6-2.7,1.3c-0.9,0.7-2.1,1.7-3.2,1.7c-0.6,0-1.3-0.3-1.9-0.9c-0.4-0.9-1.2-1.4-2-1.4c-1.1,0-2.1,0-6.4,8.4
	c-2,2.3-22.2,25.4-26.6,30.3C112.7,71,83.9,148,86.9,215.5C38.5,224.1,1.8,263.2,1.8,310c0,53.1,47.2,96.3,105.2,96.3
	c58,0,105.2-43.2,105.2-96.3C212.2,256.9,165,213.7,107,213.7 M107,392.9c-50.6,0-91.8-37.2-91.8-82.9c0-40.3,32-73.9,74.2-81.3
	c1.4,8.7,4.1,21.5,6.7,26.8c1.3,2.6,2.2,4.7,3,6.4c0,0-0.1,0-0.1,0c-7.8-1.4-10.4-4.9-12.9-8.5c-2-2.9-4.8-7.2-7.7-5.2
	c-2.9,2-3.7,6-1.7,8.9c5,7.4,14.6,11.4,26.4,11.1c1.6,0,3.3-0.2,4.9-0.4c9.8-1.3,20.4-5.6,25.2-13.5c1.9-3,0.9-7-2.1-8.8
	c-3-1.9-6.5,8.3-13.8,12.6c-1,0.6-2.2,1.3-3.5,1.9c-5.8-10.6-8.7-23.2-10.1-31.7c-0.1-0.4-0.1-0.7-0.2-1.1c1.2,0,2.3-0.1,3.5-0.1
	c50.6,0,91.8,37.2,91.8,82.9C198.8,355.7,157.6,392.9,107,392.9"/>
</svg>
